<!-- <svg xmlns="http://www.w3.org/2000/svg" width="112" height="128" viewBox="0 0 448 512"><path fill="#000000" d="M384 512H96c-53 0-96-43-96-96V96C0 43 43 0 96 0h304c26.5 0 48 21.5 48 48v288c0 20.9-13.4 38.7-32 45.3V448c17.7 0 32 14.3 32 32s-14.3 32-32 32zM96 384c-17.7 0-32 14.3-32 32s14.3 32 32 32h256v-64zm32-232c0 13.3 10.7 24 24 24h176c13.3 0 24-10.7 24-24s-10.7-24-24-24H152c-13.3 0-24 10.7-24 24m24 72c-13.3 0-24 10.7-24 24s10.7 24 24 24h176c13.3 0 24-10.7 24-24s-10.7-24-24-24z"/></svg> -->

<svg xmlns="http://www.w3.org/2000/svg" width="128" height="128" viewBox="0 0 24 24"><path fill="#7c3aed" d="M6.012 18H21V4a2 2 0 0 0-2-2H6c-1.206 0-3 .799-3 3v14c0 2.201 1.794 3 3 3h15v-2H6.012C5.55 19.988 5 19.805 5 19s.55-.988 1.012-1M8 6h9v2H8z"/></svg>