<!-- <svg xmlns="http://www.w3.org/2000/svg" width="128" height="128" viewBox="0 0 24 24"><g fill="none" stroke="#000000" stroke-linecap="round" stroke-linejoin="round" stroke-width="2"><path d="M16 2v2M7 22v-2a2 2 0 0 1 2-2h6a2 2 0 0 1 2 2v2M8 2v2"/><circle cx="12" cy="11" r="3"/><rect width="18" height="18" x="3" y="4" rx="2"/></g></svg> -->

<svg xmlns="http://www.w3.org/2000/svg" width="128" height="128" viewBox="0 0 24 24"><path fill="#7c3aed" d="M21 2H6a2 2 0 0 0-2 2v3H2v2h2v2H2v2h2v2H2v2h2v3a2 2 0 0 0 2 2h15a1 1 0 0 0 1-1V3a1 1 0 0 0-1-1m-8 2.999c1.648 0 3 1.351 3 3A3.01 3.01 0 0 1 13 11c-1.647 0-3-1.353-3-3.001c0-1.649 1.353-3 3-3M19 18H7v-.75c0-2.219 2.705-4.5 6-4.5s6 2.281 6 4.5z"/></svg>